<svg width="72" height="73" viewBox="0 0 72 73" fill="none" xmlns="http://www.w3.org/2000/svg">
<g clip-path="url(#clip0_102_93)">
<g opacity="0.1" filter="url(#filter0_f_102_93)">
<path d="M27.756 80.6L43.272 -2.81204H78.2999V80.6H27.756Z" fill="#BD6A62" fill-opacity="0.5"/>
</g>
<g opacity="0.1" filter="url(#filter1_f_102_93)">
<path d="M27.756 80.6L43.272 -2.81204H-3.85204V80.6H27.756Z" fill="#FFECD6"/>
</g>
<g opacity="0.3" filter="url(#filter2_f_102_93)">
<ellipse cx="123.732" cy="-17.464" rx="77.868" ry="33.3" fill="#FFAA5E"/>
</g>
<g opacity="0.1" filter="url(#filter3_f_102_93)">
<ellipse cx="34.812" cy="69.656" rx="93.276" ry="43.74" fill="#D83843"/>
</g>
<path d="M51.5398 109.67C36.2493 117.248 16.8077 111.774 7.96257 104.903C-0.454979 98.365 -2.27419 89.9937 -1.71743 82.9988C-0.717972 70.4418 9.03701 64.3915 21.2228 60.978C37.0487 56.5448 57.7283 62.8637 64.6879 75.4005C67.9627 81.2997 68.7125 87.4221 65.6973 94.5632C63.2748 100.3 58.4957 106.223 51.5398 109.67Z" fill="#682926"/>
<path d="M9.8337 95.3124C14.5604 98.9838 22.2556 102.166 30.6739 103.482C39.1074 104.801 48.5157 104.287 56.6078 100.277C63.9718 96.6274 69.0607 90.7429 71.6525 84.6046C74.9959 76.6864 72.7106 69.9155 69.3248 63.8165C65.5308 56.9821 57.9698 52.0864 49.5313 49.454C41.0637 46.8125 31.411 46.3491 23.1048 48.6758C16.8914 50.4163 11.1109 52.8759 6.73021 56.6371C2.29284 60.4469 -0.646301 65.5435 -1.18721 72.3393C-1.79288 79.9489 0.914037 88.3841 9.8337 95.3124Z" fill="#682926" stroke="#682926" stroke-width="3.71813"/>
<path d="M55.7823 98.611C40.4918 106.189 19.8192 100.715 10.9741 93.8442C2.55656 87.3059 0.109246 79.4817 0.665997 72.4868C1.66546 59.9298 11.4204 53.8795 23.6062 50.466C39.4321 46.0328 60.7398 52.182 67.6994 64.7188C70.9743 70.618 72.955 76.7405 69.9398 83.8815C67.5173 89.6188 62.7382 95.1639 55.7823 98.611Z" fill="#DD1C3D"/>
<path d="M49.0837 87.7301C38.6709 92.8863 24.5929 89.1615 18.5694 84.4865C12.8371 80.0374 11.1705 74.7134 11.5496 69.9536C12.2303 61.409 18.8734 57.292 27.1719 54.9692C37.9492 51.9526 52.4598 56.1369 57.1992 64.6677C59.4294 68.6819 60.7783 72.848 58.7249 77.7072C57.0752 81.6113 53.8206 85.3845 49.0837 87.7301Z" fill="#FF6C4E"/>
<path d="M43.3159 78.8247C37.1422 81.8913 28.7956 79.676 25.2244 76.8956C21.8258 74.2496 20.8377 71.0832 21.0625 68.2524C21.466 63.1706 25.4046 60.722 30.3246 59.3406C36.7144 57.5465 45.3175 60.0351 48.1274 65.1087C49.4496 67.4961 50.2494 69.9738 49.032 72.8637C48.0539 75.1856 46.1243 77.4297 43.3159 78.8247Z" fill="#DD1C3F"/>
<path d="M39.1891 72.603C35.6907 74.3398 30.961 73.0851 28.9373 71.5104C27.0114 70.0117 26.4515 68.2184 26.5788 66.6151C26.8075 63.7369 29.0394 62.3501 31.8274 61.5677C35.4483 60.5516 40.3234 61.961 41.9157 64.8346C42.6649 66.1867 43.1181 67.59 42.4282 69.2268C41.874 70.5419 40.7806 71.8128 39.1891 72.603Z" fill="#682926"/>
<path d="M44.681 18.4311L44.6797 18.4314C42.0251 19.1843 38.5743 19.2229 35.5956 19.0164C34.1315 18.9149 32.8297 18.758 31.8655 18.6183C31.3837 18.5485 30.9899 18.4836 30.7061 18.4329C30.4932 18.3949 30.3723 18.3701 30.3244 18.3603C30.3201 18.3595 30.3164 18.3587 30.3133 18.3581C30.2919 18.1104 30.264 17.8571 30.227 17.6048C30.1089 16.7996 29.8688 15.767 29.2677 14.9083C28.297 13.5216 26.5539 12.9803 25.2029 12.8575C23.8199 12.7318 22.0659 12.9681 20.8125 14.0126C20.2168 14.509 19.8683 15.1696 19.6531 15.7086C19.4271 16.2744 19.2757 16.8923 19.17 17.4807C19.0345 18.2345 18.9582 19.031 18.9181 19.7684C18.7264 19.8762 18.5354 19.9899 18.3455 20.1098C17.3074 20.7655 16.686 21.7749 16.3171 22.7954C15.949 23.8137 15.7833 24.9716 15.7344 26.1466C15.6365 28.4974 15.9951 31.2683 16.5359 33.9294C17.0806 36.6102 17.831 39.2783 18.5701 41.4588C19.2796 43.5519 20.0565 45.4331 20.7107 46.3654C21.3401 47.2622 22.3009 47.674 23.0921 47.8775C23.4301 47.9644 23.7852 48.0259 24.1491 48.0671C25.0081 52.1421 25.8281 56.0064 26.4741 59.0094C26.8349 60.6867 27.1422 62.0989 27.3718 63.1301C27.584 64.0826 27.7623 64.8644 27.8512 65.1311C28.1079 65.9011 28.6598 67.1987 29.5322 68.3226C30.3695 69.4012 31.8519 70.7459 33.9605 70.5758C35.45 70.4557 37.1095 69.9597 38.1545 68.4347C39.1528 66.9778 39.2535 65.0544 38.8793 62.9128C38.5348 60.9415 37.1669 54.0594 35.6351 46.446C37.2672 46.0153 38.501 45.6359 38.891 45.506C40.3745 45.0115 47.0732 42.3615 52.1623 35.5421C54.7364 32.0928 56.3271 27.9257 56.7063 24.4998C56.8936 22.8075 56.8078 21.0957 56.2163 19.7055C55.5745 18.1972 54.2842 17.0223 52.3683 16.9563C50.0431 16.8761 47.7015 17.5561 45.5789 18.1725C45.2749 18.2608 44.9753 18.3478 44.681 18.4311Z" stroke="#682926" stroke-width="3.81347"/>
<path d="M37.001 63.2411C37.6874 67.169 36.2608 68.4773 33.8072 68.6753C31.5242 68.8594 30.0891 65.8152 29.6601 64.5281C29.2311 63.2411 20.9368 23.5334 20.8414 22.723C20.7461 21.9126 20.6031 16.6691 22.0331 15.4774C23.4632 14.2857 26.7046 14.5717 27.7057 16.0018C28.7067 17.4318 28.373 20.4349 28.5637 21.2453C28.7544 22.0556 36.143 58.3312 37.001 63.2411Z" fill="#923F3B"/>
<path d="M35.6666 56.3292L27.0585 52.611C26.324 49.1475 25.5093 45.2792 24.7182 41.5043L33.1843 43.9354C34.0885 48.4183 34.9708 52.8164 35.6666 56.3292Z" fill="#7E231F"/>
<path d="M50.6342 34.4017C55.401 28.0142 56.4497 19.0049 52.3025 18.8619C50.022 18.7832 47.7126 19.5551 45.2 20.2658C39.2414 21.9557 30.3274 20.3396 29.8031 20.1966C29.2787 20.0536 23.8922 18.8619 19.3637 21.722C14.8352 24.5821 20.3648 42.553 22.2715 45.2701C24.1782 47.9872 37.001 44.1261 38.2881 43.6971C39.5751 43.268 45.8673 40.7893 50.6342 34.4017Z" fill="#EB3040"/>
<path d="M19.3637 21.722C14.8352 24.5821 20.3648 42.553 22.2715 45.2701C23.4526 46.9533 28.8227 46.1121 33.0445 45.1262C32.3963 43.0662 31.5986 27.8232 31.2808 20.4592C30.4546 20.3337 29.9201 20.2285 29.8031 20.1966C29.2787 20.0536 23.8922 18.8619 19.3637 21.722Z" fill="#FD4342"/>
</g>
<defs>
<filter id="filter0_f_102_93" x="4.13995" y="-26.428" width="97.776" height="130.644" filterUnits="userSpaceOnUse" color-interpolation-filters="sRGB">
<feFlood flood-opacity="0" result="BackgroundImageFix"/>
<feBlend mode="normal" in="SourceGraphic" in2="BackgroundImageFix" result="shape"/>
<feGaussianBlur stdDeviation="11.808" result="effect1_foregroundBlur_102_93"/>
</filter>
<filter id="filter1_f_102_93" x="-27.468" y="-26.428" width="94.356" height="130.644" filterUnits="userSpaceOnUse" color-interpolation-filters="sRGB">
<feFlood flood-opacity="0" result="BackgroundImageFix"/>
<feBlend mode="normal" in="SourceGraphic" in2="BackgroundImageFix" result="shape"/>
<feGaussianBlur stdDeviation="11.808" result="effect1_foregroundBlur_102_93"/>
</filter>
<filter id="filter2_f_102_93" x="-6.82143" y="-103.449" width="261.107" height="171.971" filterUnits="userSpaceOnUse" color-interpolation-filters="sRGB">
<feFlood flood-opacity="0" result="BackgroundImageFix"/>
<feBlend mode="normal" in="SourceGraphic" in2="BackgroundImageFix" result="shape"/>
<feGaussianBlur stdDeviation="26.3427" result="effect1_foregroundBlur_102_93"/>
</filter>
<filter id="filter3_f_102_93" x="-111.149" y="-26.7694" width="291.923" height="192.851" filterUnits="userSpaceOnUse" color-interpolation-filters="sRGB">
<feFlood flood-opacity="0" result="BackgroundImageFix"/>
<feBlend mode="normal" in="SourceGraphic" in2="BackgroundImageFix" result="shape"/>
<feGaussianBlur stdDeviation="26.3427" result="effect1_foregroundBlur_102_93"/>
</filter>
<clipPath id="clip0_102_93">
<rect x="-6.10352e-05" y="0.499969" width="72" height="72" rx="25" fill="white"/>
</clipPath>
</defs>
</svg>
