<svg width="72" height="73" viewBox="0 0 72 73" fill="none" xmlns="http://www.w3.org/2000/svg">
<rect x="-6.10352e-05" y="0.499969" width="72" height="72" rx="25" fill="#6B8BFE"/>
<path d="M20.5153 20.0426L26.5931 39.455C26.8017 40.2334 25.9651 40.8754 25.2674 40.4725L23.1139 39.229C22.6696 38.9724 22.1416 38.9029 21.6461 39.0357L21.0979 39.1826C19.3351 39.655 18.289 41.4672 18.7614 43.2303L18.8339 43.5012C19.0176 44.1868 19.4005 44.8023 19.9342 45.27L29.3696 53.5387C32.9682 56.6923 37.9029 57.8419 42.5244 56.6033C47.9375 55.1526 52.0088 50.6794 52.9456 45.1532L53.0083 44.7834C53.5124 41.8102 53.3131 38.7603 52.4265 35.878L51.5525 33.0369C50.4312 29.3917 46.9194 27.0227 43.1202 27.3485L32.5342 28.2566C31.3144 28.3612 30.1786 27.6261 29.7743 26.4703L26.8709 18.1712C26.6023 17.4033 26.0671 16.7572 25.3626 16.3504L25.224 16.2704C23.6754 15.3761 21.6952 15.9068 20.8011 17.4557C20.3483 18.2401 20.2447 19.1783 20.5153 20.0426Z" fill="white"/>
</svg>
