<svg width="72" height="73" viewBox="0 0 72 73" fill="none" xmlns="http://www.w3.org/2000/svg">
<rect x="-6.10352e-05" y="0.499969" width="72.0001" height="72.0001" rx="25" fill="#FFF1DD"/>
<path d="M21.3118 45.8025C23.6662 45.8025 25.3325 44.426 25.8034 42.144C26.4192 39.2462 27.5059 37.9784 29.4619 37.9784C30.947 37.9784 31.9612 38.6666 33.9535 40.4415C37.938 44.1725 40.6547 45.5851 44.3494 45.5851C50.1088 45.5851 54.4193 41.3109 55.4698 35.3703C55.6509 34.501 55.7233 33.5954 55.7233 32.6536C55.7233 29.6472 53.876 27.2927 50.8695 27.2927C48.5513 27.2927 46.885 28.6329 46.3054 30.8425C45.5448 33.9577 44.7841 35.1892 42.8281 35.1892C41.198 35.1892 40.1114 34.4286 37.8293 32.219C34.5331 29.0314 31.7077 27.5462 27.8681 27.5462C22.2536 27.5462 17.8706 31.6032 16.6753 37.3988C16.4579 38.3768 16.3493 39.4273 16.3493 40.4777C16.3493 43.5567 18.2328 45.8025 21.3118 45.8025Z" fill="#443E36"/>
</svg>
