<svg width="72" height="73" viewBox="0 0 72 73" fill="none" xmlns="http://www.w3.org/2000/svg">
<g clip-path="url(#clip0_273_133)">
<rect x="-6.10352e-05" y="0.499969" width="72" height="72" rx="25" fill="#FF5277"/>
<path d="M21.2385 51.5337L19.6614 53.8992L22.48 54.2715C24.5179 54.5407 27.8157 54.5562 31.3033 53.7801C34.7915 53.004 38.6222 51.4006 41.5327 48.3024C45.3768 44.2102 46.5412 40.1498 45.5392 36.2692C45.2048 34.9744 45.418 33.913 45.9778 33.3246L92.1465 -15.2027C92.5588 -15.636 93.0171 -16.2654 93.2527 -17.0016C93.4963 -17.763 93.5686 -18.9556 92.6239 -19.9004C91.6791 -20.8451 90.4865 -20.7728 89.7252 -20.5292C88.9889 -20.2936 88.3595 -19.8353 87.9262 -19.4231L39.9889 26.1822C39.2693 26.8668 37.8618 26.9879 35.9823 26.5206C32.8146 25.733 29.4572 26.7284 27.0404 28.6797C24.6022 30.6482 22.9233 33.7605 23.4654 37.338C23.9822 40.7488 24.1552 43.1436 23.8545 45.2482C23.5614 47.2999 22.7995 49.1922 21.2385 51.5337Z" fill="white" stroke="white" stroke-width="3.54163"/>
</g>
<defs>
<clipPath id="clip0_273_133">
<rect x="-6.10352e-05" y="0.499969" width="72" height="72" rx="25" fill="white"/>
</clipPath>
</defs>
</svg>
