<svg width="72" height="73" viewBox="0 0 72 73" fill="none" xmlns="http://www.w3.org/2000/svg">
<rect y="0.499969" width="72" height="72" rx="25" fill="#F0EFFF"/>
<path fill-rule="evenodd" clip-rule="evenodd" d="M35.9989 55.0755C25.7397 55.0755 17.4231 46.7589 17.4231 36.4997C17.4231 26.2405 25.7397 17.9239 35.9989 17.9239C46.258 17.9239 54.5746 26.2405 54.5746 36.4997C54.5746 46.7589 46.258 55.0755 35.9989 55.0755ZM33.653 38.9544L30.6809 36.3352H30.6835C29.8609 35.6081 28.6031 35.6877 27.876 36.5103C27.1488 37.333 27.2285 38.5908 28.0511 39.3179L31.9387 42.7571C33.0931 43.7761 34.8551 43.6647 35.8715 42.513C35.906 42.4758 35.906 42.4758 35.9325 42.4387L44.1695 32.4608C44.8674 31.6143 44.748 30.3591 43.8988 29.6558C43.0523 28.9579 41.7971 29.0773 41.0939 29.9265L33.653 38.9544Z" fill="#BAB4FF"/>
</svg>
