<svg width="72" height="73" viewBox="0 0 72 73" fill="none" xmlns="http://www.w3.org/2000/svg">
<rect x="-6.10352e-05" y="0.499969" width="72" height="72" rx="25" fill="#C070FE"/>
<path d="M15.0421 33.6747C14.2011 29.1823 16.613 24.7085 20.8292 22.9406L44.722 12.9217C46.9847 11.9729 49.543 13.3511 49.9944 15.7621C50.3251 17.5287 49.3912 19.2911 47.7434 20.0102L23.4076 30.6295C22.9415 30.8329 23.1488 31.5342 23.6502 31.45L46.1439 27.6743C49.6158 27.0916 52.912 29.394 53.5598 32.8545L56.3615 47.8198C57.0187 51.3304 54.7064 54.7132 51.1968 55.3756L28.673 59.6266C23.9935 60.5097 19.4896 57.4311 18.6133 52.7504L15.0421 33.6747Z" fill="white"/>
</svg>
