<svg width="72" height="72" viewBox="0 0 72 72" fill="none" xmlns="http://www.w3.org/2000/svg">
<g clip-path="url(#clip0_235_145)">
<rect width="72" height="72" fill="#FFF3F3"/>
<g opacity="0.15" filter="url(#filter0_f_235_145)">
<ellipse cx="62.892" cy="5.03996" rx="34.38" ry="22.752" fill="#FF4400"/>
</g>
<g opacity="0.15" filter="url(#filter1_f_235_145)">
<ellipse cx="24.984" cy="65.88" rx="41.184" ry="29.88" fill="#FF9100"/>
</g>
<g filter="url(#filter2_dii_235_145)">
<path d="M51.067 57.4494C47.4285 60.5232 42.1239 62.0926 39.8422 62.2385C27.6132 63.1964 20.6606 58.9415 17.9746 55.9348C17.6486 55.5698 17.9994 55.0746 18.4767 55.1824C21.3898 55.8404 21.242 55.3051 20.7003 54.8836C20.6753 54.8642 20.6507 54.8423 20.629 54.8193C11.9883 45.6168 15.6152 36.9382 19.1251 32.9611C19.4375 32.6072 19.9948 32.844 20.0249 33.3151C20.2911 37.4926 21.9069 38.8714 23.1836 38.8714C25.2997 38.8714 25.7049 36.8003 25.7049 35.1795C25.7049 28.5881 27.6409 22.0327 31.9181 22.0327C34.6134 22.0327 34.8148 15.9021 34.0372 11.033C33.9574 10.5334 34.5398 10.1757 34.9352 10.4912C37.3242 12.3976 41.5331 15.8026 45.6052 19.2412C50.4296 23.3151 49.389 29.7645 48.2438 32.5478C48.2254 32.5924 48.2132 32.6367 48.2079 32.6846C48.0787 33.8462 48.3899 36.0349 50.6478 36.0349C51.9439 36.0349 52.6744 35.3139 53.0604 34.4798C53.2895 33.9846 54.164 33.7891 54.4239 34.2688C59.8795 44.3382 54.4997 52.3027 50.4092 55.6226C50.1118 55.864 50.3331 56.3486 50.7154 56.3715C51.2117 56.4012 51.4468 57.1286 51.067 57.4494Z" fill="#FF613B"/>
<path d="M51.067 57.4494C47.4285 60.5232 42.1239 62.0926 39.8422 62.2385C27.6132 63.1964 20.6606 58.9415 17.9746 55.9348C17.6486 55.5698 17.9994 55.0746 18.4767 55.1824C21.3898 55.8404 21.242 55.3051 20.7003 54.8836C20.6753 54.8642 20.6507 54.8423 20.629 54.8193C11.9883 45.6168 15.6152 36.9382 19.1251 32.9611C19.4375 32.6072 19.9948 32.844 20.0249 33.3151C20.2911 37.4926 21.9069 38.8714 23.1836 38.8714C25.2997 38.8714 25.7049 36.8003 25.7049 35.1795C25.7049 28.5881 27.6409 22.0327 31.9181 22.0327C34.6134 22.0327 34.8148 15.9021 34.0372 11.033C33.9574 10.5334 34.5398 10.1757 34.9352 10.4912C37.3242 12.3976 41.5331 15.8026 45.6052 19.2412C50.4296 23.3151 49.389 29.7645 48.2438 32.5478C48.2254 32.5924 48.2132 32.6367 48.2079 32.6846C48.0787 33.8462 48.3899 36.0349 50.6478 36.0349C51.9439 36.0349 52.6744 35.3139 53.0604 34.4798C53.2895 33.9846 54.164 33.7891 54.4239 34.2688C59.8795 44.3382 54.4997 52.3027 50.4092 55.6226C50.1118 55.864 50.3331 56.3486 50.7154 56.3715C51.2117 56.4012 51.4468 57.1286 51.067 57.4494Z" fill="url(#paint0_radial_235_145)"/>
<path d="M51.067 57.4494C47.4285 60.5232 42.1239 62.0926 39.8422 62.2385C27.6132 63.1964 20.6606 58.9415 17.9746 55.9348C17.6486 55.5698 17.9994 55.0746 18.4767 55.1824C21.3898 55.8404 21.242 55.3051 20.7003 54.8836C20.6753 54.8642 20.6507 54.8423 20.629 54.8193C11.9883 45.6168 15.6152 36.9382 19.1251 32.9611C19.4375 32.6072 19.9948 32.844 20.0249 33.3151C20.2911 37.4926 21.9069 38.8714 23.1836 38.8714C25.2997 38.8714 25.7049 36.8003 25.7049 35.1795C25.7049 28.5881 27.6409 22.0327 31.9181 22.0327C34.6134 22.0327 34.8148 15.9021 34.0372 11.033C33.9574 10.5334 34.5398 10.1757 34.9352 10.4912C37.3242 12.3976 41.5331 15.8026 45.6052 19.2412C50.4296 23.3151 49.389 29.7645 48.2438 32.5478C48.2254 32.5924 48.2132 32.6367 48.2079 32.6846C48.0787 33.8462 48.3899 36.0349 50.6478 36.0349C51.9439 36.0349 52.6744 35.3139 53.0604 34.4798C53.2895 33.9846 54.164 33.7891 54.4239 34.2688C59.8795 44.3382 54.4997 52.3027 50.4092 55.6226C50.1118 55.864 50.3331 56.3486 50.7154 56.3715C51.2117 56.4012 51.4468 57.1286 51.067 57.4494Z" fill="url(#paint1_radial_235_145)"/>
<path d="M51.067 57.4494C47.4285 60.5232 42.1239 62.0926 39.8422 62.2385C27.6132 63.1964 20.6606 58.9415 17.9746 55.9348C17.6486 55.5698 17.9994 55.0746 18.4767 55.1824C21.3898 55.8404 21.242 55.3051 20.7003 54.8836C20.6753 54.8642 20.6507 54.8423 20.629 54.8193C11.9883 45.6168 15.6152 36.9382 19.1251 32.9611C19.4375 32.6072 19.9948 32.844 20.0249 33.3151C20.2911 37.4926 21.9069 38.8714 23.1836 38.8714C25.2997 38.8714 25.7049 36.8003 25.7049 35.1795C25.7049 28.5881 27.6409 22.0327 31.9181 22.0327C34.6134 22.0327 34.8148 15.9021 34.0372 11.033C33.9574 10.5334 34.5398 10.1757 34.9352 10.4912C37.3242 12.3976 41.5331 15.8026 45.6052 19.2412C50.4296 23.3151 49.389 29.7645 48.2438 32.5478C48.2254 32.5924 48.2132 32.6367 48.2079 32.6846C48.0787 33.8462 48.3899 36.0349 50.6478 36.0349C51.9439 36.0349 52.6744 35.3139 53.0604 34.4798C53.2895 33.9846 54.164 33.7891 54.4239 34.2688C59.8795 44.3382 54.4997 52.3027 50.4092 55.6226C50.1118 55.864 50.3331 56.3486 50.7154 56.3715C51.2117 56.4012 51.4468 57.1286 51.067 57.4494Z" fill="url(#paint2_radial_235_145)"/>
</g>
<mask id="mask0_235_145" style="mask-type:alpha" maskUnits="userSpaceOnUse" x="15" y="10" width="42" height="53">
<path d="M51.067 57.4651C47.4285 60.5388 42.1239 62.1082 39.8422 62.2541C27.6132 63.212 20.6606 58.9571 17.9746 55.9504C17.6486 55.5855 17.9994 55.0902 18.4767 55.198C21.3898 55.856 21.242 55.3207 20.7003 54.8992C20.6753 54.8798 20.6507 54.858 20.629 54.8349C11.9883 45.6324 15.6152 36.9538 19.1251 32.9768C19.4375 32.6228 19.9948 32.8596 20.0249 33.3307C20.2911 37.5082 21.9069 38.887 23.1836 38.887C25.2997 38.887 25.7049 36.816 25.7049 35.1951C25.7049 28.6037 27.6409 22.0483 31.9181 22.0483C34.6134 22.0483 34.8148 15.9177 34.0372 11.0486C33.9574 10.549 34.5398 10.1913 34.9352 10.5069C37.3242 12.4132 41.5331 15.8182 45.6052 19.2569C50.4296 23.3307 49.389 29.7801 48.2438 32.5634C48.2254 32.608 48.2132 32.6523 48.2079 32.7003C48.0787 33.8619 48.3899 36.0506 50.6478 36.0506C51.9439 36.0506 52.6744 35.3295 53.0604 34.4955C53.2895 34.0002 54.164 33.8047 54.4239 34.2845C59.8795 44.3538 54.4997 52.3183 50.4092 55.6382C50.1118 55.8796 50.3331 56.3643 50.7154 56.3871C51.2117 56.4168 51.4468 57.1442 51.067 57.4651Z" fill="#FF613B"/>
<path d="M51.067 57.4651C47.4285 60.5388 42.1239 62.1082 39.8422 62.2541C27.6132 63.212 20.6606 58.9571 17.9746 55.9504C17.6486 55.5855 17.9994 55.0902 18.4767 55.198C21.3898 55.856 21.242 55.3207 20.7003 54.8992C20.6753 54.8798 20.6507 54.858 20.629 54.8349C11.9883 45.6324 15.6152 36.9538 19.1251 32.9768C19.4375 32.6228 19.9948 32.8596 20.0249 33.3307C20.2911 37.5082 21.9069 38.887 23.1836 38.887C25.2997 38.887 25.7049 36.816 25.7049 35.1951C25.7049 28.6037 27.6409 22.0483 31.9181 22.0483C34.6134 22.0483 34.8148 15.9177 34.0372 11.0486C33.9574 10.549 34.5398 10.1913 34.9352 10.5069C37.3242 12.4132 41.5331 15.8182 45.6052 19.2569C50.4296 23.3307 49.389 29.7801 48.2438 32.5634C48.2254 32.608 48.2132 32.6523 48.2079 32.7003C48.0787 33.8619 48.3899 36.0506 50.6478 36.0506C51.9439 36.0506 52.6744 35.3295 53.0604 34.4955C53.2895 34.0002 54.164 33.8047 54.4239 34.2845C59.8795 44.3538 54.4997 52.3183 50.4092 55.6382C50.1118 55.8796 50.3331 56.3643 50.7154 56.3871C51.2117 56.4168 51.4468 57.1442 51.067 57.4651Z" fill="url(#paint3_radial_235_145)"/>
<path d="M51.067 57.4651C47.4285 60.5388 42.1239 62.1082 39.8422 62.2541C27.6132 63.212 20.6606 58.9571 17.9746 55.9504C17.6486 55.5855 17.9994 55.0902 18.4767 55.198C21.3898 55.856 21.242 55.3207 20.7003 54.8992C20.6753 54.8798 20.6507 54.858 20.629 54.8349C11.9883 45.6324 15.6152 36.9538 19.1251 32.9768C19.4375 32.6228 19.9948 32.8596 20.0249 33.3307C20.2911 37.5082 21.9069 38.887 23.1836 38.887C25.2997 38.887 25.7049 36.816 25.7049 35.1951C25.7049 28.6037 27.6409 22.0483 31.9181 22.0483C34.6134 22.0483 34.8148 15.9177 34.0372 11.0486C33.9574 10.549 34.5398 10.1913 34.9352 10.5069C37.3242 12.4132 41.5331 15.8182 45.6052 19.2569C50.4296 23.3307 49.389 29.7801 48.2438 32.5634C48.2254 32.608 48.2132 32.6523 48.2079 32.7003C48.0787 33.8619 48.3899 36.0506 50.6478 36.0506C51.9439 36.0506 52.6744 35.3295 53.0604 34.4955C53.2895 34.0002 54.164 33.8047 54.4239 34.2845C59.8795 44.3538 54.4997 52.3183 50.4092 55.6382C50.1118 55.8796 50.3331 56.3643 50.7154 56.3871C51.2117 56.4168 51.4468 57.1442 51.067 57.4651Z" fill="url(#paint4_radial_235_145)"/>
<path d="M51.067 57.4651C47.4285 60.5388 42.1239 62.1082 39.8422 62.2541C27.6132 63.212 20.6606 58.9571 17.9746 55.9504C17.6486 55.5855 17.9994 55.0902 18.4767 55.198C21.3898 55.856 21.242 55.3207 20.7003 54.8992C20.6753 54.8798 20.6507 54.858 20.629 54.8349C11.9883 45.6324 15.6152 36.9538 19.1251 32.9768C19.4375 32.6228 19.9948 32.8596 20.0249 33.3307C20.2911 37.5082 21.9069 38.887 23.1836 38.887C25.2997 38.887 25.7049 36.816 25.7049 35.1951C25.7049 28.6037 27.6409 22.0483 31.9181 22.0483C34.6134 22.0483 34.8148 15.9177 34.0372 11.0486C33.9574 10.549 34.5398 10.1913 34.9352 10.5069C37.3242 12.4132 41.5331 15.8182 45.6052 19.2569C50.4296 23.3307 49.389 29.7801 48.2438 32.5634C48.2254 32.608 48.2132 32.6523 48.2079 32.7003C48.0787 33.8619 48.3899 36.0506 50.6478 36.0506C51.9439 36.0506 52.6744 35.3295 53.0604 34.4955C53.2895 34.0002 54.164 33.8047 54.4239 34.2845C59.8795 44.3538 54.4997 52.3183 50.4092 55.6382C50.1118 55.8796 50.3331 56.3643 50.7154 56.3871C51.2117 56.4168 51.4468 57.1442 51.067 57.4651Z" fill="url(#paint5_radial_235_145)"/>
</mask>
<g mask="url(#mask0_235_145)">
<g filter="url(#filter3_dii_235_145)">
<path d="M51.067 57.4651C47.4285 60.5388 42.1239 62.1082 39.8422 62.2541C27.6132 63.212 20.6606 58.9571 17.9746 55.9504C17.6486 55.5855 17.9994 55.0902 18.4767 55.198C21.3898 55.856 21.242 55.3207 20.7003 54.8992C20.6753 54.8798 20.6507 54.858 20.629 54.8349C11.9883 45.6324 15.6152 36.9538 19.1251 32.9768C19.4375 32.6228 19.9948 32.8596 20.0249 33.3307C20.2911 37.5082 21.9069 38.887 23.1836 38.887C25.2997 38.887 25.7049 36.816 25.7049 35.1951C25.7049 28.6037 27.6409 22.0483 31.9181 22.0483C34.6134 22.0483 34.8148 15.9177 34.0372 11.0486C33.9574 10.549 34.5398 10.1913 34.9352 10.5069C37.3242 12.4132 41.5331 15.8182 45.6052 19.2569C50.4296 23.3307 49.389 29.7801 48.2438 32.5634C48.2254 32.608 48.2132 32.6523 48.2079 32.7003C48.0787 33.8619 48.3899 36.0506 50.6478 36.0506C51.9439 36.0506 52.6744 35.3295 53.0604 34.4955C53.2895 34.0002 54.164 33.8047 54.4239 34.2845C59.8795 44.3538 54.4997 52.3183 50.4092 55.6382C50.1118 55.8796 50.3331 56.3643 50.7154 56.3871C51.2117 56.4168 51.4468 57.1442 51.067 57.4651Z" fill="#FF613B"/>
<path d="M51.067 57.4651C47.4285 60.5388 42.1239 62.1082 39.8422 62.2541C27.6132 63.212 20.6606 58.9571 17.9746 55.9504C17.6486 55.5855 17.9994 55.0902 18.4767 55.198C21.3898 55.856 21.242 55.3207 20.7003 54.8992C20.6753 54.8798 20.6507 54.858 20.629 54.8349C11.9883 45.6324 15.6152 36.9538 19.1251 32.9768C19.4375 32.6228 19.9948 32.8596 20.0249 33.3307C20.2911 37.5082 21.9069 38.887 23.1836 38.887C25.2997 38.887 25.7049 36.816 25.7049 35.1951C25.7049 28.6037 27.6409 22.0483 31.9181 22.0483C34.6134 22.0483 34.8148 15.9177 34.0372 11.0486C33.9574 10.549 34.5398 10.1913 34.9352 10.5069C37.3242 12.4132 41.5331 15.8182 45.6052 19.2569C50.4296 23.3307 49.389 29.7801 48.2438 32.5634C48.2254 32.608 48.2132 32.6523 48.2079 32.7003C48.0787 33.8619 48.3899 36.0506 50.6478 36.0506C51.9439 36.0506 52.6744 35.3295 53.0604 34.4955C53.2895 34.0002 54.164 33.8047 54.4239 34.2845C59.8795 44.3538 54.4997 52.3183 50.4092 55.6382C50.1118 55.8796 50.3331 56.3643 50.7154 56.3871C51.2117 56.4168 51.4468 57.1442 51.067 57.4651Z" fill="url(#paint6_radial_235_145)"/>
<path d="M51.067 57.4651C47.4285 60.5388 42.1239 62.1082 39.8422 62.2541C27.6132 63.212 20.6606 58.9571 17.9746 55.9504C17.6486 55.5855 17.9994 55.0902 18.4767 55.198C21.3898 55.856 21.242 55.3207 20.7003 54.8992C20.6753 54.8798 20.6507 54.858 20.629 54.8349C11.9883 45.6324 15.6152 36.9538 19.1251 32.9768C19.4375 32.6228 19.9948 32.8596 20.0249 33.3307C20.2911 37.5082 21.9069 38.887 23.1836 38.887C25.2997 38.887 25.7049 36.816 25.7049 35.1951C25.7049 28.6037 27.6409 22.0483 31.9181 22.0483C34.6134 22.0483 34.8148 15.9177 34.0372 11.0486C33.9574 10.549 34.5398 10.1913 34.9352 10.5069C37.3242 12.4132 41.5331 15.8182 45.6052 19.2569C50.4296 23.3307 49.389 29.7801 48.2438 32.5634C48.2254 32.608 48.2132 32.6523 48.2079 32.7003C48.0787 33.8619 48.3899 36.0506 50.6478 36.0506C51.9439 36.0506 52.6744 35.3295 53.0604 34.4955C53.2895 34.0002 54.164 33.8047 54.4239 34.2845C59.8795 44.3538 54.4997 52.3183 50.4092 55.6382C50.1118 55.8796 50.3331 56.3643 50.7154 56.3871C51.2117 56.4168 51.4468 57.1442 51.067 57.4651Z" fill="url(#paint7_radial_235_145)"/>
<path d="M51.067 57.4651C47.4285 60.5388 42.1239 62.1082 39.8422 62.2541C27.6132 63.212 20.6606 58.9571 17.9746 55.9504C17.6486 55.5855 17.9994 55.0902 18.4767 55.198C21.3898 55.856 21.242 55.3207 20.7003 54.8992C20.6753 54.8798 20.6507 54.858 20.629 54.8349C11.9883 45.6324 15.6152 36.9538 19.1251 32.9768C19.4375 32.6228 19.9948 32.8596 20.0249 33.3307C20.2911 37.5082 21.9069 38.887 23.1836 38.887C25.2997 38.887 25.7049 36.816 25.7049 35.1951C25.7049 28.6037 27.6409 22.0483 31.9181 22.0483C34.6134 22.0483 34.8148 15.9177 34.0372 11.0486C33.9574 10.549 34.5398 10.1913 34.9352 10.5069C37.3242 12.4132 41.5331 15.8182 45.6052 19.2569C50.4296 23.3307 49.389 29.7801 48.2438 32.5634C48.2254 32.608 48.2132 32.6523 48.2079 32.7003C48.0787 33.8619 48.3899 36.0506 50.6478 36.0506C51.9439 36.0506 52.6744 35.3295 53.0604 34.4955C53.2895 34.0002 54.164 33.8047 54.4239 34.2845C59.8795 44.3538 54.4997 52.3183 50.4092 55.6382C50.1118 55.8796 50.3331 56.3643 50.7154 56.3871C51.2117 56.4168 51.4468 57.1442 51.067 57.4651Z" fill="url(#paint8_radial_235_145)"/>
</g>
<g style="mix-blend-mode:overlay" filter="url(#filter4_ddi_235_145)">
<path d="M30.172 29.1202C37.9766 23.3989 37.2606 22.8268 38.6685 19.0749C38.9365 18.3609 39.6949 17.9731 40.3958 18.2737C42.8731 19.3362 47.8736 22.8498 43.8533 33.1888C43.5645 33.9316 43.8274 34.7792 44.4542 35.2716C48.2486 38.2521 48.3037 41.4326 53.1142 40.5699C53.7272 40.46 54.3947 40.6468 54.6254 41.2252C56.4313 45.7533 51.1795 57.2751 49.4781 62.301C49.287 62.8655 48.8236 63.2997 48.2412 63.4264L26.9963 68.049C26.1515 68.2329 25.3094 67.7227 25.1483 66.8732C24.1303 61.5056 24.4026 54.0536 20.0324 48.2273C19.3384 47.302 19.6075 45.8855 20.6391 45.3625C23.1238 44.1028 26.9992 41.82 28.3713 39.26C30.1877 35.8709 29.9568 33.1215 29.528 30.7506C29.4154 30.1282 29.6619 29.4941 30.172 29.1202Z" fill="#FF9D87"/>
</g>
<g style="mix-blend-mode:overlay">
<path d="M24.62 48.7799C26.1714 52.7615 26.3608 60.9951 26.379 64.3256C26.3834 65.1411 26.9267 65.8543 27.7145 66.065L42.5293 70.0259C43.5566 70.3006 44.5959 69.6201 44.7998 68.5765C47.7627 53.4151 53.0773 55.1017 52.6083 45.2425C52.5776 44.5963 52.1758 44.0335 51.6021 43.7345C47.2473 41.4642 43.9256 38.0781 40.5148 35.3875C39.8185 34.8383 39.5905 33.8769 39.9576 33.0696C41.5513 29.5651 42.266 26.2704 41.0746 24.0933C40.4812 23.0091 39.0708 23.6489 38.5273 24.759C37.865 26.1119 36.8798 27.214 35.7429 28.0899C35.0219 28.6453 34.7178 29.6104 34.7985 30.5169C35.2353 35.4256 29.355 42.0535 25.1241 45.856C24.3472 46.5543 24.2407 47.8066 24.62 48.7799Z" fill="#FF9B9B"/>
</g>
<g style="mix-blend-mode:overlay" filter="url(#filter5_d_235_145)">
<path d="M27.1601 48.1993C30.3195 52.9667 30.0495 57.626 29.6186 61.6613C29.6162 61.6836 29.6157 61.7051 29.6179 61.7274C30.0626 66.3478 46.6409 72.9565 44.6691 63.7893C42.6926 54.6005 50.137 52.0371 48.6567 47.5962C47.3561 43.6942 43.2512 52.9688 36.5755 35.5665C36.5082 35.3912 36.2364 35.4072 36.2059 35.5926C34.8334 43.9408 29.3822 46.6613 27.4367 47.3766C27.1105 47.4965 26.9681 47.9096 27.1601 48.1993Z" fill="#FCFBCB"/>
<path d="M27.1601 48.1993C30.3195 52.9667 30.0495 57.626 29.6186 61.6613C29.6162 61.6836 29.6157 61.7051 29.6179 61.7274C30.0626 66.3478 46.6409 72.9565 44.6691 63.7893C42.6926 54.6005 50.137 52.0371 48.6567 47.5962C47.3561 43.6942 43.2512 52.9688 36.5755 35.5665C36.5082 35.3912 36.2364 35.4072 36.2059 35.5926C34.8334 43.9408 29.3822 46.6613 27.4367 47.3766C27.1105 47.4965 26.9681 47.9096 27.1601 48.1993Z" fill="url(#paint9_radial_235_145)"/>
<path d="M27.1601 48.1993C30.3195 52.9667 30.0495 57.626 29.6186 61.6613C29.6162 61.6836 29.6157 61.7051 29.6179 61.7274C30.0626 66.3478 46.6409 72.9565 44.6691 63.7893C42.6926 54.6005 50.137 52.0371 48.6567 47.5962C47.3561 43.6942 43.2512 52.9688 36.5755 35.5665C36.5082 35.3912 36.2364 35.4072 36.2059 35.5926C34.8334 43.9408 29.3822 46.6613 27.4367 47.3766C27.1105 47.4965 26.9681 47.9096 27.1601 48.1993Z" fill="url(#paint10_radial_235_145)"/>
</g>
<g style="mix-blend-mode:overlay" opacity="0.25">
<path d="M51.561 56.0674C33.3733 65.7198 22.1718 56.7279 20.0407 54.7554C19.8073 54.5394 19.4737 54.4728 19.1798 54.5941L16.5598 55.6754C16.0085 55.9029 15.926 56.6482 16.4179 56.9855C31.8143 67.5406 46.0919 64.2074 54.9627 61.2117C55.4492 61.0474 55.63 60.4578 55.3255 60.0443L52.5548 56.2823C52.3281 55.9745 51.8986 55.8882 51.561 56.0674Z" fill="#4E0707"/>
</g>
<path d="M22.248 53.496C14.2992 47.304 17.088 38.316 19.476 34.596C19.56 37.008 20.628 41.4216 24.228 39.78C26.676 38.628 27.36 37.224 27.36 34.596C27.36 31.968 28.08 25.452 31.428 24.156C34.776 22.86 38.412 15.912 35.64 12.384C39.936 15.132 48.4272 22.0248 48.024 27.612C47.52 34.596 46.548 36.756 51.552 36.972C52.848 36.972 53.724 36.084 54 35.64C55.692 38.688 57.1608 46.9584 49.5 55.656L51.552 59.868L63.108 60.696L60.228 22.032L46.656 10.908L30.672 6.01196L14.112 16.596L5.39996 48.456L16.272 57.492C24.7392 58.1256 23.784 55.092 22.248 53.496Z" fill="#7A0E00"/>
</g>
<g style="mix-blend-mode:overlay">
<rect x="-7" y="-6" width="85" height="85" fill="#FF2E00"/>
</g>
</g>
<defs>
<filter id="filter0_f_235_145" x="-7.48804" y="-53.712" width="140.76" height="117.504" filterUnits="userSpaceOnUse" color-interpolation-filters="sRGB">
<feFlood flood-opacity="0" result="BackgroundImageFix"/>
<feBlend mode="normal" in="SourceGraphic" in2="BackgroundImageFix" result="shape"/>
<feGaussianBlur stdDeviation="18" result="effect1_foregroundBlur_235_145"/>
</filter>
<filter id="filter1_f_235_145" x="-52.2" y="0" width="154.368" height="131.76" filterUnits="userSpaceOnUse" color-interpolation-filters="sRGB">
<feFlood flood-opacity="0" result="BackgroundImageFix"/>
<feBlend mode="normal" in="SourceGraphic" in2="BackgroundImageFix" result="shape"/>
<feGaussianBlur stdDeviation="18" result="effect1_foregroundBlur_235_145"/>
</filter>
<filter id="filter2_dii_235_145" x="5.74183" y="5.39258" width="60.5391" height="71.0936" filterUnits="userSpaceOnUse" color-interpolation-filters="sRGB">
<feFlood flood-opacity="0" result="BackgroundImageFix"/>
<feColorMatrix in="SourceAlpha" type="matrix" values="0 0 0 0 0 0 0 0 0 0 0 0 0 0 0 0 0 0 127 0" result="hardAlpha"/>
<feOffset dy="4.56521"/>
<feGaussianBlur stdDeviation="4.77247"/>
<feComposite in2="hardAlpha" operator="out"/>
<feColorMatrix type="matrix" values="0 0 0 0 1 0 0 0 0 0.243137 0 0 0 0 0 0 0 0 0.15 0"/>
<feBlend mode="normal" in2="BackgroundImageFix" result="effect1_dropShadow_235_145"/>
<feBlend mode="normal" in="SourceGraphic" in2="effect1_dropShadow_235_145" result="shape"/>
<feColorMatrix in="SourceAlpha" type="matrix" values="0 0 0 0 0 0 0 0 0 0 0 0 0 0 0 0 0 0 127 0" result="hardAlpha"/>
<feOffset/>
<feGaussianBlur stdDeviation="6.03313"/>
<feComposite in2="hardAlpha" operator="arithmetic" k2="-1" k3="1"/>
<feColorMatrix type="matrix" values="0 0 0 0 1 0 0 0 0 0.603108 0 0 0 0 0.258333 0 0 0 1 0"/>
<feBlend mode="normal" in2="shape" result="effect2_innerShadow_235_145"/>
<feColorMatrix in="SourceAlpha" type="matrix" values="0 0 0 0 0 0 0 0 0 0 0 0 0 0 0 0 0 0 127 0" result="hardAlpha"/>
<feOffset/>
<feGaussianBlur stdDeviation="2.61135"/>
<feComposite in2="hardAlpha" operator="arithmetic" k2="-1" k3="1"/>
<feColorMatrix type="matrix" values="0 0 0 0 0.679167 0 0 0 0 0.0815 0 0 0 0 0 0 0 0 1 0"/>
<feBlend mode="normal" in2="effect2_innerShadow_235_145" result="effect3_innerShadow_235_145"/>
</filter>
<filter id="filter3_dii_235_145" x="5.74183" y="5.40821" width="60.5391" height="71.0936" filterUnits="userSpaceOnUse" color-interpolation-filters="sRGB">
<feFlood flood-opacity="0" result="BackgroundImageFix"/>
<feColorMatrix in="SourceAlpha" type="matrix" values="0 0 0 0 0 0 0 0 0 0 0 0 0 0 0 0 0 0 127 0" result="hardAlpha"/>
<feOffset dy="4.56521"/>
<feGaussianBlur stdDeviation="4.77247"/>
<feComposite in2="hardAlpha" operator="out"/>
<feColorMatrix type="matrix" values="0 0 0 0 1 0 0 0 0 0.243137 0 0 0 0 0 0 0 0 0.15 0"/>
<feBlend mode="normal" in2="BackgroundImageFix" result="effect1_dropShadow_235_145"/>
<feBlend mode="normal" in="SourceGraphic" in2="effect1_dropShadow_235_145" result="shape"/>
<feColorMatrix in="SourceAlpha" type="matrix" values="0 0 0 0 0 0 0 0 0 0 0 0 0 0 0 0 0 0 127 0" result="hardAlpha"/>
<feOffset/>
<feGaussianBlur stdDeviation="6.03313"/>
<feComposite in2="hardAlpha" operator="arithmetic" k2="-1" k3="1"/>
<feColorMatrix type="matrix" values="0 0 0 0 1 0 0 0 0 0.603108 0 0 0 0 0.258333 0 0 0 1 0"/>
<feBlend mode="normal" in2="shape" result="effect2_innerShadow_235_145"/>
<feColorMatrix in="SourceAlpha" type="matrix" values="0 0 0 0 0 0 0 0 0 0 0 0 0 0 0 0 0 0 127 0" result="hardAlpha"/>
<feOffset/>
<feGaussianBlur stdDeviation="2.61135"/>
<feComposite in2="hardAlpha" operator="arithmetic" k2="-1" k3="1"/>
<feColorMatrix type="matrix" values="0 0 0 0 0.679167 0 0 0 0 0.0815 0 0 0 0 0 0 0 0 1 0"/>
<feBlend mode="normal" in2="effect2_innerShadow_235_145" result="effect3_innerShadow_235_145"/>
</filter>
<filter id="filter4_ddi_235_145" x="10.1024" y="10.4271" width="54.4407" height="69.0052" filterUnits="userSpaceOnUse" color-interpolation-filters="sRGB">
<feFlood flood-opacity="0" result="BackgroundImageFix"/>
<feColorMatrix in="SourceAlpha" type="matrix" values="0 0 0 0 0 0 0 0 0 0 0 0 0 0 0 0 0 0 127 0" result="hardAlpha"/>
<feOffset dy="1.80093"/>
<feGaussianBlur stdDeviation="4.77247"/>
<feComposite in2="hardAlpha" operator="out"/>
<feColorMatrix type="matrix" values="0 0 0 0 1 0 0 0 0 0.48 0 0 0 0 0 0 0 0 0.25 0"/>
<feBlend mode="normal" in2="BackgroundImageFix" result="effect1_dropShadow_235_145"/>
<feColorMatrix in="SourceAlpha" type="matrix" values="0 0 0 0 0 0 0 0 0 0 0 0 0 0 0 0 0 0 127 0" result="hardAlpha"/>
<feOffset dy="0.277399"/>
<feGaussianBlur stdDeviation="0.1387"/>
<feComposite in2="hardAlpha" operator="out"/>
<feColorMatrix type="matrix" values="0 0 0 0 0 0 0 0 0 0 0 0 0 0 0 0 0 0 0.25 0"/>
<feBlend mode="normal" in2="effect1_dropShadow_235_145" result="effect2_dropShadow_235_145"/>
<feBlend mode="normal" in="SourceGraphic" in2="effect2_dropShadow_235_145" result="shape"/>
<feColorMatrix in="SourceAlpha" type="matrix" values="0 0 0 0 0 0 0 0 0 0 0 0 0 0 0 0 0 0 127 0" result="hardAlpha"/>
<feOffset/>
<feGaussianBlur stdDeviation="6.03313"/>
<feComposite in2="hardAlpha" operator="arithmetic" k2="-1" k3="1"/>
<feColorMatrix type="matrix" values="0 0 0 0 1 0 0 0 0 0.603108 0 0 0 0 0.258333 0 0 0 1 0"/>
<feBlend mode="normal" in2="shape" result="effect3_innerShadow_235_145"/>
</filter>
<filter id="filter5_d_235_145" x="23.0213" y="31.7519" width="29.8837" height="41.0463" filterUnits="userSpaceOnUse" color-interpolation-filters="sRGB">
<feFlood flood-opacity="0" result="BackgroundImageFix"/>
<feColorMatrix in="SourceAlpha" type="matrix" values="0 0 0 0 0 0 0 0 0 0 0 0 0 0 0 0 0 0 127 0" result="hardAlpha"/>
<feOffset dy="0.360187"/>
<feGaussianBlur stdDeviation="2.02605"/>
<feComposite in2="hardAlpha" operator="out"/>
<feColorMatrix type="matrix" values="0 0 0 0 1 0 0 0 0 0.831373 0 0 0 0 0.666667 0 0 0 1 0"/>
<feBlend mode="normal" in2="BackgroundImageFix" result="effect1_dropShadow_235_145"/>
<feBlend mode="normal" in="SourceGraphic" in2="effect1_dropShadow_235_145" result="shape"/>
</filter>
<radialGradient id="paint0_radial_235_145" cx="0" cy="0" r="1" gradientUnits="userSpaceOnUse" gradientTransform="translate(30.9999 64.7598) rotate(-72.741) scale(29.1363 22.8663)">
<stop stop-color="#FFCF53"/>
<stop offset="1" stop-color="#FFCF53" stop-opacity="0"/>
</radialGradient>
<radialGradient id="paint1_radial_235_145" cx="0" cy="0" r="1" gradientUnits="userSpaceOnUse" gradientTransform="translate(56.7082 41.6629) rotate(-169.847) scale(25.7971 20.2456)">
<stop stop-color="#FFCF53"/>
<stop offset="1" stop-color="#FFCF53" stop-opacity="0"/>
</radialGradient>
<radialGradient id="paint2_radial_235_145" cx="0" cy="0" r="1" gradientUnits="userSpaceOnUse" gradientTransform="translate(28.0284 11.8574) rotate(51.1373) scale(35.7341 28.0442)">
<stop stop-color="#FFCF53"/>
<stop offset="1" stop-color="#FFCF53" stop-opacity="0"/>
</radialGradient>
<radialGradient id="paint3_radial_235_145" cx="0" cy="0" r="1" gradientUnits="userSpaceOnUse" gradientTransform="translate(30.9999 64.7754) rotate(-72.741) scale(29.1363 22.8663)">
<stop stop-color="#FFCF53"/>
<stop offset="1" stop-color="#FFCF53" stop-opacity="0"/>
</radialGradient>
<radialGradient id="paint4_radial_235_145" cx="0" cy="0" r="1" gradientUnits="userSpaceOnUse" gradientTransform="translate(56.7082 41.6785) rotate(-169.847) scale(25.7971 20.2456)">
<stop stop-color="#FFCF53"/>
<stop offset="1" stop-color="#FFCF53" stop-opacity="0"/>
</radialGradient>
<radialGradient id="paint5_radial_235_145" cx="0" cy="0" r="1" gradientUnits="userSpaceOnUse" gradientTransform="translate(28.0284 11.873) rotate(51.1373) scale(35.7341 28.0442)">
<stop stop-color="#FFCF53"/>
<stop offset="1" stop-color="#FFCF53" stop-opacity="0"/>
</radialGradient>
<radialGradient id="paint6_radial_235_145" cx="0" cy="0" r="1" gradientUnits="userSpaceOnUse" gradientTransform="translate(30.9999 64.7754) rotate(-72.741) scale(29.1363 22.8663)">
<stop stop-color="#FFCF53"/>
<stop offset="1" stop-color="#FFCF53" stop-opacity="0"/>
</radialGradient>
<radialGradient id="paint7_radial_235_145" cx="0" cy="0" r="1" gradientUnits="userSpaceOnUse" gradientTransform="translate(56.7082 41.6785) rotate(-169.847) scale(25.7971 20.2456)">
<stop stop-color="#FFCF53"/>
<stop offset="1" stop-color="#FFCF53" stop-opacity="0"/>
</radialGradient>
<radialGradient id="paint8_radial_235_145" cx="0" cy="0" r="1" gradientUnits="userSpaceOnUse" gradientTransform="translate(28.0284 11.873) rotate(51.1373) scale(35.7341 28.0442)">
<stop stop-color="#FFCF53"/>
<stop offset="1" stop-color="#FFCF53" stop-opacity="0"/>
</radialGradient>
<radialGradient id="paint9_radial_235_145" cx="0" cy="0" r="1" gradientUnits="userSpaceOnUse" gradientTransform="translate(44.7038 44.2674) rotate(105.485) scale(24.1772 14.5726)">
<stop stop-color="#FFC148"/>
<stop offset="1" stop-color="#FFB32C" stop-opacity="0"/>
</radialGradient>
<radialGradient id="paint10_radial_235_145" cx="0" cy="0" r="1" gradientUnits="userSpaceOnUse" gradientTransform="translate(26.6777 57.0765) rotate(44.9812) scale(19.945 12.0216)">
<stop stop-color="#FFC148"/>
<stop offset="1" stop-color="#FFB32C" stop-opacity="0"/>
</radialGradient>
<clipPath id="clip0_235_145">
<rect width="72" height="72" fill="white"/>
</clipPath>
</defs>
</svg>
