<svg width="72" height="73" viewBox="0 0 72 73" fill="none" xmlns="http://www.w3.org/2000/svg">
<g clip-path="url(#clip0_102_65)">
<rect x="-6.10352e-05" y="0.499969" width="72" height="72" rx="25" fill="#FFF3F3"/>
<g opacity="0.15" filter="url(#filter0_f_102_65)">
<ellipse cx="62.892" cy="5.53996" rx="34.38" ry="22.752" fill="#FF4400"/>
</g>
<g opacity="0.15" filter="url(#filter1_f_102_65)">
<ellipse cx="24.984" cy="66.38" rx="41.184" ry="29.88" fill="#FF9100"/>
</g>
<g filter="url(#filter2_dii_102_65)">
<path d="M51.067 57.9494C47.4285 61.0232 42.1239 62.5926 39.8422 62.7385C27.6132 63.6964 20.6606 59.4415 17.9746 56.4348C17.6486 56.0698 17.9994 55.5746 18.4767 55.6824C21.3898 56.3404 21.242 55.8051 20.7003 55.3836C20.6753 55.3642 20.6507 55.3423 20.629 55.3193C11.9883 46.1168 15.6152 37.4382 19.1251 33.4611C19.4375 33.1072 19.9948 33.344 20.0249 33.8151C20.2911 37.9926 21.9069 39.3714 23.1836 39.3714C25.2997 39.3714 25.7049 37.3003 25.7049 35.6795C25.7049 29.0881 27.6409 22.5327 31.9181 22.5327C34.6134 22.5327 34.8148 16.4021 34.0372 11.533C33.9574 11.0334 34.5398 10.6757 34.9352 10.9912C37.3242 12.8976 41.5331 16.3026 45.6052 19.7412C50.4296 23.8151 49.389 30.2645 48.2438 33.0478C48.2254 33.0924 48.2132 33.1367 48.2079 33.1846C48.0787 34.3462 48.3899 36.5349 50.6478 36.5349C51.9439 36.5349 52.6744 35.8139 53.0604 34.9798C53.2895 34.4846 54.164 34.2891 54.4239 34.7688C59.8795 44.8382 54.4997 52.8027 50.4092 56.1226C50.1118 56.364 50.3331 56.8486 50.7154 56.8715C51.2117 56.9012 51.4468 57.6286 51.067 57.9494Z" fill="#FF613B"/>
<path d="M51.067 57.9494C47.4285 61.0232 42.1239 62.5926 39.8422 62.7385C27.6132 63.6964 20.6606 59.4415 17.9746 56.4348C17.6486 56.0698 17.9994 55.5746 18.4767 55.6824C21.3898 56.3404 21.242 55.8051 20.7003 55.3836C20.6753 55.3642 20.6507 55.3423 20.629 55.3193C11.9883 46.1168 15.6152 37.4382 19.1251 33.4611C19.4375 33.1072 19.9948 33.344 20.0249 33.8151C20.2911 37.9926 21.9069 39.3714 23.1836 39.3714C25.2997 39.3714 25.7049 37.3003 25.7049 35.6795C25.7049 29.0881 27.6409 22.5327 31.9181 22.5327C34.6134 22.5327 34.8148 16.4021 34.0372 11.533C33.9574 11.0334 34.5398 10.6757 34.9352 10.9912C37.3242 12.8976 41.5331 16.3026 45.6052 19.7412C50.4296 23.8151 49.389 30.2645 48.2438 33.0478C48.2254 33.0924 48.2132 33.1367 48.2079 33.1846C48.0787 34.3462 48.3899 36.5349 50.6478 36.5349C51.9439 36.5349 52.6744 35.8139 53.0604 34.9798C53.2895 34.4846 54.164 34.2891 54.4239 34.7688C59.8795 44.8382 54.4997 52.8027 50.4092 56.1226C50.1118 56.364 50.3331 56.8486 50.7154 56.8715C51.2117 56.9012 51.4468 57.6286 51.067 57.9494Z" fill="url(#paint0_radial_102_65)"/>
<path d="M51.067 57.9494C47.4285 61.0232 42.1239 62.5926 39.8422 62.7385C27.6132 63.6964 20.6606 59.4415 17.9746 56.4348C17.6486 56.0698 17.9994 55.5746 18.4767 55.6824C21.3898 56.3404 21.242 55.8051 20.7003 55.3836C20.6753 55.3642 20.6507 55.3423 20.629 55.3193C11.9883 46.1168 15.6152 37.4382 19.1251 33.4611C19.4375 33.1072 19.9948 33.344 20.0249 33.8151C20.2911 37.9926 21.9069 39.3714 23.1836 39.3714C25.2997 39.3714 25.7049 37.3003 25.7049 35.6795C25.7049 29.0881 27.6409 22.5327 31.9181 22.5327C34.6134 22.5327 34.8148 16.4021 34.0372 11.533C33.9574 11.0334 34.5398 10.6757 34.9352 10.9912C37.3242 12.8976 41.5331 16.3026 45.6052 19.7412C50.4296 23.8151 49.389 30.2645 48.2438 33.0478C48.2254 33.0924 48.2132 33.1367 48.2079 33.1846C48.0787 34.3462 48.3899 36.5349 50.6478 36.5349C51.9439 36.5349 52.6744 35.8139 53.0604 34.9798C53.2895 34.4846 54.164 34.2891 54.4239 34.7688C59.8795 44.8382 54.4997 52.8027 50.4092 56.1226C50.1118 56.364 50.3331 56.8486 50.7154 56.8715C51.2117 56.9012 51.4468 57.6286 51.067 57.9494Z" fill="url(#paint1_radial_102_65)"/>
<path d="M51.067 57.9494C47.4285 61.0232 42.1239 62.5926 39.8422 62.7385C27.6132 63.6964 20.6606 59.4415 17.9746 56.4348C17.6486 56.0698 17.9994 55.5746 18.4767 55.6824C21.3898 56.3404 21.242 55.8051 20.7003 55.3836C20.6753 55.3642 20.6507 55.3423 20.629 55.3193C11.9883 46.1168 15.6152 37.4382 19.1251 33.4611C19.4375 33.1072 19.9948 33.344 20.0249 33.8151C20.2911 37.9926 21.9069 39.3714 23.1836 39.3714C25.2997 39.3714 25.7049 37.3003 25.7049 35.6795C25.7049 29.0881 27.6409 22.5327 31.9181 22.5327C34.6134 22.5327 34.8148 16.4021 34.0372 11.533C33.9574 11.0334 34.5398 10.6757 34.9352 10.9912C37.3242 12.8976 41.5331 16.3026 45.6052 19.7412C50.4296 23.8151 49.389 30.2645 48.2438 33.0478C48.2254 33.0924 48.2132 33.1367 48.2079 33.1846C48.0787 34.3462 48.3899 36.5349 50.6478 36.5349C51.9439 36.5349 52.6744 35.8139 53.0604 34.9798C53.2895 34.4846 54.164 34.2891 54.4239 34.7688C59.8795 44.8382 54.4997 52.8027 50.4092 56.1226C50.1118 56.364 50.3331 56.8486 50.7154 56.8715C51.2117 56.9012 51.4468 57.6286 51.067 57.9494Z" fill="url(#paint2_radial_102_65)"/>
</g>
<mask id="mask0_102_65" style="mask-type:alpha" maskUnits="userSpaceOnUse" x="15" y="10" width="42" height="53">
<path d="M51.067 57.9651C47.4285 61.0388 42.1239 62.6082 39.8422 62.7541C27.6132 63.712 20.6606 59.4571 17.9746 56.4504C17.6486 56.0855 17.9994 55.5902 18.4767 55.698C21.3898 56.356 21.242 55.8207 20.7003 55.3992C20.6753 55.3798 20.6507 55.358 20.629 55.3349C11.9883 46.1324 15.6152 37.4538 19.1251 33.4768C19.4375 33.1228 19.9948 33.3596 20.0249 33.8307C20.2911 38.0082 21.9069 39.387 23.1836 39.387C25.2997 39.387 25.7049 37.316 25.7049 35.6951C25.7049 29.1037 27.6409 22.5483 31.9181 22.5483C34.6134 22.5483 34.8148 16.4177 34.0372 11.5486C33.9574 11.049 34.5398 10.6913 34.9352 11.0069C37.3242 12.9132 41.5331 16.3182 45.6052 19.7569C50.4296 23.8307 49.389 30.2801 48.2438 33.0634C48.2254 33.108 48.2132 33.1523 48.2079 33.2003C48.0787 34.3619 48.3899 36.5506 50.6478 36.5506C51.9439 36.5506 52.6744 35.8295 53.0604 34.9955C53.2895 34.5002 54.164 34.3047 54.4239 34.7845C59.8795 44.8538 54.4997 52.8183 50.4092 56.1382C50.1118 56.3796 50.3331 56.8643 50.7154 56.8871C51.2117 56.9168 51.4468 57.6442 51.067 57.9651Z" fill="#FF613B"/>
<path d="M51.067 57.9651C47.4285 61.0388 42.1239 62.6082 39.8422 62.7541C27.6132 63.712 20.6606 59.4571 17.9746 56.4504C17.6486 56.0855 17.9994 55.5902 18.4767 55.698C21.3898 56.356 21.242 55.8207 20.7003 55.3992C20.6753 55.3798 20.6507 55.358 20.629 55.3349C11.9883 46.1324 15.6152 37.4538 19.1251 33.4768C19.4375 33.1228 19.9948 33.3596 20.0249 33.8307C20.2911 38.0082 21.9069 39.387 23.1836 39.387C25.2997 39.387 25.7049 37.316 25.7049 35.6951C25.7049 29.1037 27.6409 22.5483 31.9181 22.5483C34.6134 22.5483 34.8148 16.4177 34.0372 11.5486C33.9574 11.049 34.5398 10.6913 34.9352 11.0069C37.3242 12.9132 41.5331 16.3182 45.6052 19.7569C50.4296 23.8307 49.389 30.2801 48.2438 33.0634C48.2254 33.108 48.2132 33.1523 48.2079 33.2003C48.0787 34.3619 48.3899 36.5506 50.6478 36.5506C51.9439 36.5506 52.6744 35.8295 53.0604 34.9955C53.2895 34.5002 54.164 34.3047 54.4239 34.7845C59.8795 44.8538 54.4997 52.8183 50.4092 56.1382C50.1118 56.3796 50.3331 56.8643 50.7154 56.8871C51.2117 56.9168 51.4468 57.6442 51.067 57.9651Z" fill="url(#paint3_radial_102_65)"/>
<path d="M51.067 57.9651C47.4285 61.0388 42.1239 62.6082 39.8422 62.7541C27.6132 63.712 20.6606 59.4571 17.9746 56.4504C17.6486 56.0855 17.9994 55.5902 18.4767 55.698C21.3898 56.356 21.242 55.8207 20.7003 55.3992C20.6753 55.3798 20.6507 55.358 20.629 55.3349C11.9883 46.1324 15.6152 37.4538 19.1251 33.4768C19.4375 33.1228 19.9948 33.3596 20.0249 33.8307C20.2911 38.0082 21.9069 39.387 23.1836 39.387C25.2997 39.387 25.7049 37.316 25.7049 35.6951C25.7049 29.1037 27.6409 22.5483 31.9181 22.5483C34.6134 22.5483 34.8148 16.4177 34.0372 11.5486C33.9574 11.049 34.5398 10.6913 34.9352 11.0069C37.3242 12.9132 41.5331 16.3182 45.6052 19.7569C50.4296 23.8307 49.389 30.2801 48.2438 33.0634C48.2254 33.108 48.2132 33.1523 48.2079 33.2003C48.0787 34.3619 48.3899 36.5506 50.6478 36.5506C51.9439 36.5506 52.6744 35.8295 53.0604 34.9955C53.2895 34.5002 54.164 34.3047 54.4239 34.7845C59.8795 44.8538 54.4997 52.8183 50.4092 56.1382C50.1118 56.3796 50.3331 56.8643 50.7154 56.8871C51.2117 56.9168 51.4468 57.6442 51.067 57.9651Z" fill="url(#paint4_radial_102_65)"/>
<path d="M51.067 57.9651C47.4285 61.0388 42.1239 62.6082 39.8422 62.7541C27.6132 63.712 20.6606 59.4571 17.9746 56.4504C17.6486 56.0855 17.9994 55.5902 18.4767 55.698C21.3898 56.356 21.242 55.8207 20.7003 55.3992C20.6753 55.3798 20.6507 55.358 20.629 55.3349C11.9883 46.1324 15.6152 37.4538 19.1251 33.4768C19.4375 33.1228 19.9948 33.3596 20.0249 33.8307C20.2911 38.0082 21.9069 39.387 23.1836 39.387C25.2997 39.387 25.7049 37.316 25.7049 35.6951C25.7049 29.1037 27.6409 22.5483 31.9181 22.5483C34.6134 22.5483 34.8148 16.4177 34.0372 11.5486C33.9574 11.049 34.5398 10.6913 34.9352 11.0069C37.3242 12.9132 41.5331 16.3182 45.6052 19.7569C50.4296 23.8307 49.389 30.2801 48.2438 33.0634C48.2254 33.108 48.2132 33.1523 48.2079 33.2003C48.0787 34.3619 48.3899 36.5506 50.6478 36.5506C51.9439 36.5506 52.6744 35.8295 53.0604 34.9955C53.2895 34.5002 54.164 34.3047 54.4239 34.7845C59.8795 44.8538 54.4997 52.8183 50.4092 56.1382C50.1118 56.3796 50.3331 56.8643 50.7154 56.8871C51.2117 56.9168 51.4468 57.6442 51.067 57.9651Z" fill="url(#paint5_radial_102_65)"/>
</mask>
<g mask="url(#mask0_102_65)">
<g filter="url(#filter3_dii_102_65)">
<path d="M51.067 57.9651C47.4285 61.0388 42.1239 62.6082 39.8422 62.7541C27.6132 63.712 20.6606 59.4571 17.9746 56.4504C17.6486 56.0855 17.9994 55.5902 18.4767 55.698C21.3898 56.356 21.242 55.8207 20.7003 55.3992C20.6753 55.3798 20.6507 55.358 20.629 55.3349C11.9883 46.1324 15.6152 37.4538 19.1251 33.4768C19.4375 33.1228 19.9948 33.3596 20.0249 33.8307C20.2911 38.0082 21.9069 39.387 23.1836 39.387C25.2997 39.387 25.7049 37.316 25.7049 35.6951C25.7049 29.1037 27.6409 22.5483 31.9181 22.5483C34.6134 22.5483 34.8148 16.4177 34.0372 11.5486C33.9574 11.049 34.5398 10.6913 34.9352 11.0069C37.3242 12.9132 41.5331 16.3182 45.6052 19.7569C50.4296 23.8307 49.389 30.2801 48.2438 33.0634C48.2254 33.108 48.2132 33.1523 48.2079 33.2003C48.0787 34.3619 48.3899 36.5506 50.6478 36.5506C51.9439 36.5506 52.6744 35.8295 53.0604 34.9955C53.2895 34.5002 54.164 34.3047 54.4239 34.7845C59.8795 44.8538 54.4997 52.8183 50.4092 56.1382C50.1118 56.3796 50.3331 56.8643 50.7154 56.8871C51.2117 56.9168 51.4468 57.6442 51.067 57.9651Z" fill="#FF613B"/>
<path d="M51.067 57.9651C47.4285 61.0388 42.1239 62.6082 39.8422 62.7541C27.6132 63.712 20.6606 59.4571 17.9746 56.4504C17.6486 56.0855 17.9994 55.5902 18.4767 55.698C21.3898 56.356 21.242 55.8207 20.7003 55.3992C20.6753 55.3798 20.6507 55.358 20.629 55.3349C11.9883 46.1324 15.6152 37.4538 19.1251 33.4768C19.4375 33.1228 19.9948 33.3596 20.0249 33.8307C20.2911 38.0082 21.9069 39.387 23.1836 39.387C25.2997 39.387 25.7049 37.316 25.7049 35.6951C25.7049 29.1037 27.6409 22.5483 31.9181 22.5483C34.6134 22.5483 34.8148 16.4177 34.0372 11.5486C33.9574 11.049 34.5398 10.6913 34.9352 11.0069C37.3242 12.9132 41.5331 16.3182 45.6052 19.7569C50.4296 23.8307 49.389 30.2801 48.2438 33.0634C48.2254 33.108 48.2132 33.1523 48.2079 33.2003C48.0787 34.3619 48.3899 36.5506 50.6478 36.5506C51.9439 36.5506 52.6744 35.8295 53.0604 34.9955C53.2895 34.5002 54.164 34.3047 54.4239 34.7845C59.8795 44.8538 54.4997 52.8183 50.4092 56.1382C50.1118 56.3796 50.3331 56.8643 50.7154 56.8871C51.2117 56.9168 51.4468 57.6442 51.067 57.9651Z" fill="url(#paint6_radial_102_65)"/>
<path d="M51.067 57.9651C47.4285 61.0388 42.1239 62.6082 39.8422 62.7541C27.6132 63.712 20.6606 59.4571 17.9746 56.4504C17.6486 56.0855 17.9994 55.5902 18.4767 55.698C21.3898 56.356 21.242 55.8207 20.7003 55.3992C20.6753 55.3798 20.6507 55.358 20.629 55.3349C11.9883 46.1324 15.6152 37.4538 19.1251 33.4768C19.4375 33.1228 19.9948 33.3596 20.0249 33.8307C20.2911 38.0082 21.9069 39.387 23.1836 39.387C25.2997 39.387 25.7049 37.316 25.7049 35.6951C25.7049 29.1037 27.6409 22.5483 31.9181 22.5483C34.6134 22.5483 34.8148 16.4177 34.0372 11.5486C33.9574 11.049 34.5398 10.6913 34.9352 11.0069C37.3242 12.9132 41.5331 16.3182 45.6052 19.7569C50.4296 23.8307 49.389 30.2801 48.2438 33.0634C48.2254 33.108 48.2132 33.1523 48.2079 33.2003C48.0787 34.3619 48.3899 36.5506 50.6478 36.5506C51.9439 36.5506 52.6744 35.8295 53.0604 34.9955C53.2895 34.5002 54.164 34.3047 54.4239 34.7845C59.8795 44.8538 54.4997 52.8183 50.4092 56.1382C50.1118 56.3796 50.3331 56.8643 50.7154 56.8871C51.2117 56.9168 51.4468 57.6442 51.067 57.9651Z" fill="url(#paint7_radial_102_65)"/>
<path d="M51.067 57.9651C47.4285 61.0388 42.1239 62.6082 39.8422 62.7541C27.6132 63.712 20.6606 59.4571 17.9746 56.4504C17.6486 56.0855 17.9994 55.5902 18.4767 55.698C21.3898 56.356 21.242 55.8207 20.7003 55.3992C20.6753 55.3798 20.6507 55.358 20.629 55.3349C11.9883 46.1324 15.6152 37.4538 19.1251 33.4768C19.4375 33.1228 19.9948 33.3596 20.0249 33.8307C20.2911 38.0082 21.9069 39.387 23.1836 39.387C25.2997 39.387 25.7049 37.316 25.7049 35.6951C25.7049 29.1037 27.6409 22.5483 31.9181 22.5483C34.6134 22.5483 34.8148 16.4177 34.0372 11.5486C33.9574 11.049 34.5398 10.6913 34.9352 11.0069C37.3242 12.9132 41.5331 16.3182 45.6052 19.7569C50.4296 23.8307 49.389 30.2801 48.2438 33.0634C48.2254 33.108 48.2132 33.1523 48.2079 33.2003C48.0787 34.3619 48.3899 36.5506 50.6478 36.5506C51.9439 36.5506 52.6744 35.8295 53.0604 34.9955C53.2895 34.5002 54.164 34.3047 54.4239 34.7845C59.8795 44.8538 54.4997 52.8183 50.4092 56.1382C50.1118 56.3796 50.3331 56.8643 50.7154 56.8871C51.2117 56.9168 51.4468 57.6442 51.067 57.9651Z" fill="url(#paint8_radial_102_65)"/>
</g>
<g style="mix-blend-mode:overlay" filter="url(#filter4_ddi_102_65)">
<path d="M30.172 29.6201C37.9766 23.8988 37.2606 23.3268 38.6685 19.5749C38.9365 18.8609 39.6949 18.4731 40.3958 18.7737C42.8731 19.8361 47.8736 23.3498 43.8533 33.6888C43.5645 34.4316 43.8274 35.2792 44.4542 35.7716C48.2486 38.7521 48.3037 41.9326 53.1142 41.0699C53.7272 40.96 54.3947 41.1468 54.6254 41.7252C56.4313 46.2533 51.1795 57.7751 49.4781 62.8009C49.287 63.3655 48.8236 63.7997 48.2412 63.9264L26.9963 68.549C26.1515 68.7328 25.3094 68.2227 25.1483 67.3732C24.1303 62.0056 24.4026 54.5536 20.0324 48.7272C19.3384 47.802 19.6075 46.3855 20.6391 45.8625C23.1238 44.6028 26.9992 42.32 28.3713 39.76C30.1877 36.3709 29.9568 33.6215 29.528 31.2506C29.4154 30.6282 29.6619 29.9941 30.172 29.6201Z" fill="#FF9D87"/>
</g>
<g style="mix-blend-mode:overlay">
<path d="M24.62 49.2799C26.1714 53.2615 26.3608 61.4951 26.379 64.8256C26.3834 65.6411 26.9267 66.3543 27.7145 66.565L42.5293 70.5259C43.5566 70.8006 44.5959 70.1201 44.7998 69.0765C47.7627 53.9151 53.0773 55.6017 52.6083 45.7425C52.5776 45.0963 52.1758 44.5335 51.6021 44.2345C47.2473 41.9642 43.9256 38.5781 40.5148 35.8875C39.8185 35.3383 39.5905 34.3769 39.9576 33.5696C41.5513 30.0651 42.266 26.7704 41.0746 24.5933C40.4812 23.5091 39.0708 24.1489 38.5273 25.259C37.865 26.6119 36.8798 27.714 35.7429 28.5899C35.0219 29.1453 34.7178 30.1104 34.7985 31.0169C35.2353 35.9256 29.355 42.5535 25.1241 46.356C24.3472 47.0543 24.2407 48.3066 24.62 49.2799Z" fill="#FF9B9B"/>
</g>
<g style="mix-blend-mode:overlay" filter="url(#filter5_d_102_65)">
<path d="M27.1601 48.6993C30.3195 53.4667 30.0495 58.126 29.6186 62.1613C29.6162 62.1836 29.6157 62.205 29.6179 62.2273C30.0626 66.8478 46.6409 73.4565 44.6691 64.2893C42.6926 55.1005 50.137 52.537 48.6567 48.0961C47.3561 44.1942 43.2512 53.4688 36.5755 36.0665C36.5082 35.8912 36.2364 35.9072 36.2059 36.0925C34.8334 44.4408 29.3822 47.1613 27.4367 47.8766C27.1105 47.9965 26.9681 48.4096 27.1601 48.6993Z" fill="#FCFBCB"/>
<path d="M27.1601 48.6993C30.3195 53.4667 30.0495 58.126 29.6186 62.1613C29.6162 62.1836 29.6157 62.205 29.6179 62.2273C30.0626 66.8478 46.6409 73.4565 44.6691 64.2893C42.6926 55.1005 50.137 52.537 48.6567 48.0961C47.3561 44.1942 43.2512 53.4688 36.5755 36.0665C36.5082 35.8912 36.2364 35.9072 36.2059 36.0925C34.8334 44.4408 29.3822 47.1613 27.4367 47.8766C27.1105 47.9965 26.9681 48.4096 27.1601 48.6993Z" fill="url(#paint9_radial_102_65)"/>
<path d="M27.1601 48.6993C30.3195 53.4667 30.0495 58.126 29.6186 62.1613C29.6162 62.1836 29.6157 62.205 29.6179 62.2273C30.0626 66.8478 46.6409 73.4565 44.6691 64.2893C42.6926 55.1005 50.137 52.537 48.6567 48.0961C47.3561 44.1942 43.2512 53.4688 36.5755 36.0665C36.5082 35.8912 36.2364 35.9072 36.2059 36.0925C34.8334 44.4408 29.3822 47.1613 27.4367 47.8766C27.1105 47.9965 26.9681 48.4096 27.1601 48.6993Z" fill="url(#paint10_radial_102_65)"/>
</g>
<g style="mix-blend-mode:overlay" opacity="0.25">
<path d="M51.561 56.5674C33.3733 66.2198 22.1718 57.2279 20.0407 55.2554C19.8073 55.0394 19.4737 54.9728 19.1798 55.0941L16.5598 56.1754C16.0085 56.4029 15.926 57.1482 16.4179 57.4855C31.8143 68.0406 46.0919 64.7074 54.9627 61.7117C55.4492 61.5474 55.63 60.9578 55.3255 60.5443L52.5548 56.7823C52.3281 56.4745 51.8986 56.3882 51.561 56.5674Z" fill="#4E0707"/>
</g>
<path d="M22.248 53.996C14.2992 47.804 17.088 38.816 19.476 35.096C19.56 37.508 20.628 41.9216 24.228 40.28C26.676 39.128 27.36 37.724 27.36 35.096C27.36 32.468 28.08 25.952 31.428 24.656C34.776 23.36 38.412 16.412 35.64 12.884C39.936 15.632 48.4272 22.5248 48.024 28.112C47.52 35.096 46.548 37.256 51.552 37.472C52.848 37.472 53.724 36.584 54 36.14C55.692 39.188 57.1608 47.4584 49.5 56.156L51.552 60.368L63.108 61.196L60.228 22.532L46.656 11.408L30.672 6.51196L14.112 17.096L5.39996 48.956L16.272 57.992C24.7392 58.6256 23.784 55.592 22.248 53.996Z" fill="#7A0E00"/>
</g>
<g style="mix-blend-mode:overlay">
<rect x="-117" y="-111.375" width="1233" height="1223.75" fill="#FF2E00"/>
</g>
</g>
<defs>
<filter id="filter0_f_102_65" x="-7.48804" y="-53.212" width="140.76" height="117.504" filterUnits="userSpaceOnUse" color-interpolation-filters="sRGB">
<feFlood flood-opacity="0" result="BackgroundImageFix"/>
<feBlend mode="normal" in="SourceGraphic" in2="BackgroundImageFix" result="shape"/>
<feGaussianBlur stdDeviation="18" result="effect1_foregroundBlur_102_65"/>
</filter>
<filter id="filter1_f_102_65" x="-52.2" y="0.499969" width="154.368" height="131.76" filterUnits="userSpaceOnUse" color-interpolation-filters="sRGB">
<feFlood flood-opacity="0" result="BackgroundImageFix"/>
<feBlend mode="normal" in="SourceGraphic" in2="BackgroundImageFix" result="shape"/>
<feGaussianBlur stdDeviation="18" result="effect1_foregroundBlur_102_65"/>
</filter>
<filter id="filter2_dii_102_65" x="5.74183" y="5.89258" width="60.5391" height="71.0936" filterUnits="userSpaceOnUse" color-interpolation-filters="sRGB">
<feFlood flood-opacity="0" result="BackgroundImageFix"/>
<feColorMatrix in="SourceAlpha" type="matrix" values="0 0 0 0 0 0 0 0 0 0 0 0 0 0 0 0 0 0 127 0" result="hardAlpha"/>
<feOffset dy="4.56521"/>
<feGaussianBlur stdDeviation="4.77247"/>
<feComposite in2="hardAlpha" operator="out"/>
<feColorMatrix type="matrix" values="0 0 0 0 1 0 0 0 0 0.243137 0 0 0 0 0 0 0 0 0.15 0"/>
<feBlend mode="normal" in2="BackgroundImageFix" result="effect1_dropShadow_102_65"/>
<feBlend mode="normal" in="SourceGraphic" in2="effect1_dropShadow_102_65" result="shape"/>
<feColorMatrix in="SourceAlpha" type="matrix" values="0 0 0 0 0 0 0 0 0 0 0 0 0 0 0 0 0 0 127 0" result="hardAlpha"/>
<feOffset/>
<feGaussianBlur stdDeviation="6.03313"/>
<feComposite in2="hardAlpha" operator="arithmetic" k2="-1" k3="1"/>
<feColorMatrix type="matrix" values="0 0 0 0 1 0 0 0 0 0.603108 0 0 0 0 0.258333 0 0 0 1 0"/>
<feBlend mode="normal" in2="shape" result="effect2_innerShadow_102_65"/>
<feColorMatrix in="SourceAlpha" type="matrix" values="0 0 0 0 0 0 0 0 0 0 0 0 0 0 0 0 0 0 127 0" result="hardAlpha"/>
<feOffset/>
<feGaussianBlur stdDeviation="2.61135"/>
<feComposite in2="hardAlpha" operator="arithmetic" k2="-1" k3="1"/>
<feColorMatrix type="matrix" values="0 0 0 0 0.679167 0 0 0 0 0.0815 0 0 0 0 0 0 0 0 1 0"/>
<feBlend mode="normal" in2="effect2_innerShadow_102_65" result="effect3_innerShadow_102_65"/>
</filter>
<filter id="filter3_dii_102_65" x="5.74183" y="5.90821" width="60.5391" height="71.0936" filterUnits="userSpaceOnUse" color-interpolation-filters="sRGB">
<feFlood flood-opacity="0" result="BackgroundImageFix"/>
<feColorMatrix in="SourceAlpha" type="matrix" values="0 0 0 0 0 0 0 0 0 0 0 0 0 0 0 0 0 0 127 0" result="hardAlpha"/>
<feOffset dy="4.56521"/>
<feGaussianBlur stdDeviation="4.77247"/>
<feComposite in2="hardAlpha" operator="out"/>
<feColorMatrix type="matrix" values="0 0 0 0 1 0 0 0 0 0.243137 0 0 0 0 0 0 0 0 0.15 0"/>
<feBlend mode="normal" in2="BackgroundImageFix" result="effect1_dropShadow_102_65"/>
<feBlend mode="normal" in="SourceGraphic" in2="effect1_dropShadow_102_65" result="shape"/>
<feColorMatrix in="SourceAlpha" type="matrix" values="0 0 0 0 0 0 0 0 0 0 0 0 0 0 0 0 0 0 127 0" result="hardAlpha"/>
<feOffset/>
<feGaussianBlur stdDeviation="6.03313"/>
<feComposite in2="hardAlpha" operator="arithmetic" k2="-1" k3="1"/>
<feColorMatrix type="matrix" values="0 0 0 0 1 0 0 0 0 0.603108 0 0 0 0 0.258333 0 0 0 1 0"/>
<feBlend mode="normal" in2="shape" result="effect2_innerShadow_102_65"/>
<feColorMatrix in="SourceAlpha" type="matrix" values="0 0 0 0 0 0 0 0 0 0 0 0 0 0 0 0 0 0 127 0" result="hardAlpha"/>
<feOffset/>
<feGaussianBlur stdDeviation="2.61135"/>
<feComposite in2="hardAlpha" operator="arithmetic" k2="-1" k3="1"/>
<feColorMatrix type="matrix" values="0 0 0 0 0.679167 0 0 0 0 0.0815 0 0 0 0 0 0 0 0 1 0"/>
<feBlend mode="normal" in2="effect2_innerShadow_102_65" result="effect3_innerShadow_102_65"/>
</filter>
<filter id="filter4_ddi_102_65" x="10.1024" y="10.9271" width="54.4407" height="69.0052" filterUnits="userSpaceOnUse" color-interpolation-filters="sRGB">
<feFlood flood-opacity="0" result="BackgroundImageFix"/>
<feColorMatrix in="SourceAlpha" type="matrix" values="0 0 0 0 0 0 0 0 0 0 0 0 0 0 0 0 0 0 127 0" result="hardAlpha"/>
<feOffset dy="1.80093"/>
<feGaussianBlur stdDeviation="4.77247"/>
<feComposite in2="hardAlpha" operator="out"/>
<feColorMatrix type="matrix" values="0 0 0 0 1 0 0 0 0 0.48 0 0 0 0 0 0 0 0 0.25 0"/>
<feBlend mode="normal" in2="BackgroundImageFix" result="effect1_dropShadow_102_65"/>
<feColorMatrix in="SourceAlpha" type="matrix" values="0 0 0 0 0 0 0 0 0 0 0 0 0 0 0 0 0 0 127 0" result="hardAlpha"/>
<feOffset dy="0.277399"/>
<feGaussianBlur stdDeviation="0.1387"/>
<feComposite in2="hardAlpha" operator="out"/>
<feColorMatrix type="matrix" values="0 0 0 0 0 0 0 0 0 0 0 0 0 0 0 0 0 0 0.25 0"/>
<feBlend mode="normal" in2="effect1_dropShadow_102_65" result="effect2_dropShadow_102_65"/>
<feBlend mode="normal" in="SourceGraphic" in2="effect2_dropShadow_102_65" result="shape"/>
<feColorMatrix in="SourceAlpha" type="matrix" values="0 0 0 0 0 0 0 0 0 0 0 0 0 0 0 0 0 0 127 0" result="hardAlpha"/>
<feOffset/>
<feGaussianBlur stdDeviation="6.03313"/>
<feComposite in2="hardAlpha" operator="arithmetic" k2="-1" k3="1"/>
<feColorMatrix type="matrix" values="0 0 0 0 1 0 0 0 0 0.603108 0 0 0 0 0.258333 0 0 0 1 0"/>
<feBlend mode="normal" in2="shape" result="effect3_innerShadow_102_65"/>
</filter>
<filter id="filter5_d_102_65" x="23.0213" y="32.2519" width="29.8837" height="41.0464" filterUnits="userSpaceOnUse" color-interpolation-filters="sRGB">
<feFlood flood-opacity="0" result="BackgroundImageFix"/>
<feColorMatrix in="SourceAlpha" type="matrix" values="0 0 0 0 0 0 0 0 0 0 0 0 0 0 0 0 0 0 127 0" result="hardAlpha"/>
<feOffset dy="0.360187"/>
<feGaussianBlur stdDeviation="2.02605"/>
<feComposite in2="hardAlpha" operator="out"/>
<feColorMatrix type="matrix" values="0 0 0 0 1 0 0 0 0 0.831373 0 0 0 0 0.666667 0 0 0 1 0"/>
<feBlend mode="normal" in2="BackgroundImageFix" result="effect1_dropShadow_102_65"/>
<feBlend mode="normal" in="SourceGraphic" in2="effect1_dropShadow_102_65" result="shape"/>
</filter>
<radialGradient id="paint0_radial_102_65" cx="0" cy="0" r="1" gradientUnits="userSpaceOnUse" gradientTransform="translate(30.9999 65.2598) rotate(-72.741) scale(29.1363 22.8663)">
<stop stop-color="#FFCF53"/>
<stop offset="1" stop-color="#FFCF53" stop-opacity="0"/>
</radialGradient>
<radialGradient id="paint1_radial_102_65" cx="0" cy="0" r="1" gradientUnits="userSpaceOnUse" gradientTransform="translate(56.7082 42.1629) rotate(-169.847) scale(25.7971 20.2456)">
<stop stop-color="#FFCF53"/>
<stop offset="1" stop-color="#FFCF53" stop-opacity="0"/>
</radialGradient>
<radialGradient id="paint2_radial_102_65" cx="0" cy="0" r="1" gradientUnits="userSpaceOnUse" gradientTransform="translate(28.0284 12.3574) rotate(51.1373) scale(35.7341 28.0442)">
<stop stop-color="#FFCF53"/>
<stop offset="1" stop-color="#FFCF53" stop-opacity="0"/>
</radialGradient>
<radialGradient id="paint3_radial_102_65" cx="0" cy="0" r="1" gradientUnits="userSpaceOnUse" gradientTransform="translate(30.9999 65.2754) rotate(-72.741) scale(29.1363 22.8663)">
<stop stop-color="#FFCF53"/>
<stop offset="1" stop-color="#FFCF53" stop-opacity="0"/>
</radialGradient>
<radialGradient id="paint4_radial_102_65" cx="0" cy="0" r="1" gradientUnits="userSpaceOnUse" gradientTransform="translate(56.7082 42.1785) rotate(-169.847) scale(25.7971 20.2456)">
<stop stop-color="#FFCF53"/>
<stop offset="1" stop-color="#FFCF53" stop-opacity="0"/>
</radialGradient>
<radialGradient id="paint5_radial_102_65" cx="0" cy="0" r="1" gradientUnits="userSpaceOnUse" gradientTransform="translate(28.0284 12.373) rotate(51.1373) scale(35.7341 28.0442)">
<stop stop-color="#FFCF53"/>
<stop offset="1" stop-color="#FFCF53" stop-opacity="0"/>
</radialGradient>
<radialGradient id="paint6_radial_102_65" cx="0" cy="0" r="1" gradientUnits="userSpaceOnUse" gradientTransform="translate(30.9999 65.2754) rotate(-72.741) scale(29.1363 22.8663)">
<stop stop-color="#FFCF53"/>
<stop offset="1" stop-color="#FFCF53" stop-opacity="0"/>
</radialGradient>
<radialGradient id="paint7_radial_102_65" cx="0" cy="0" r="1" gradientUnits="userSpaceOnUse" gradientTransform="translate(56.7082 42.1785) rotate(-169.847) scale(25.7971 20.2456)">
<stop stop-color="#FFCF53"/>
<stop offset="1" stop-color="#FFCF53" stop-opacity="0"/>
</radialGradient>
<radialGradient id="paint8_radial_102_65" cx="0" cy="0" r="1" gradientUnits="userSpaceOnUse" gradientTransform="translate(28.0284 12.373) rotate(51.1373) scale(35.7341 28.0442)">
<stop stop-color="#FFCF53"/>
<stop offset="1" stop-color="#FFCF53" stop-opacity="0"/>
</radialGradient>
<radialGradient id="paint9_radial_102_65" cx="0" cy="0" r="1" gradientUnits="userSpaceOnUse" gradientTransform="translate(44.7038 44.7673) rotate(105.485) scale(24.1772 14.5726)">
<stop stop-color="#FFC148"/>
<stop offset="1" stop-color="#FFB32C" stop-opacity="0"/>
</radialGradient>
<radialGradient id="paint10_radial_102_65" cx="0" cy="0" r="1" gradientUnits="userSpaceOnUse" gradientTransform="translate(26.6777 57.5764) rotate(44.9812) scale(19.945 12.0216)">
<stop stop-color="#FFC148"/>
<stop offset="1" stop-color="#FFB32C" stop-opacity="0"/>
</radialGradient>
<clipPath id="clip0_102_65">
<rect x="-6.10352e-05" y="0.499969" width="72" height="72" rx="25" fill="white"/>
</clipPath>
</defs>
</svg>
