<svg width="30" height="34" viewBox="0 0 30 34" fill="none" xmlns="http://www.w3.org/2000/svg">
<path fill-rule="evenodd" clip-rule="evenodd" d="M3.08156 8.07292C4.68978 3.26455 9.20842 0.0208012 14.2984 0.0208012C15.462 0.0208012 16.5958 0.190323 17.6717 0.509305C18.282 0.690248 18.9367 0.65393 19.5373 0.443017C20.3544 0.156094 21.2335 0 22.1492 0C26.4851 0 30 3.49973 30 7.81686C30 9.73516 29.306 11.4921 28.1544 12.8523C27.719 13.3664 27.518 14.0608 27.7317 14.6997L27.9031 15.2122C27.9503 15.3534 27.974 15.4241 27.9916 15.4781C30.9539 24.578 23.8472 33.9232 14.2399 34C4.63267 33.9232 -2.26863 24.3121 0.693732 15.2122L3.08156 8.07292ZM14.2984 2.90523C10.4557 2.90523 7.04426 5.35414 5.8301 8.98428L3.44228 16.1235C1.08348 23.3695 6.61332 31.0546 14.2632 31.1157C21.913 31.0546 27.5946 23.6134 25.2358 16.3675C25.2227 16.3274 25.2038 16.2708 25.1546 16.1235L24.9935 15.6421C24.906 15.3804 24.6204 15.2437 24.3554 15.3208C23.6555 15.5245 22.9152 15.6337 22.1492 15.6337C17.8133 15.6337 14.2984 12.134 14.2984 7.81686C14.2984 6.23012 14.7732 4.7538 15.5891 3.52108C15.7341 3.30209 15.616 2.99829 15.3552 2.96743C15.0076 2.9263 14.6549 2.90523 14.2984 2.90523Z" fill="#459BFF"/>
</svg>
