<svg width="72" height="73" viewBox="0 0 72 73" fill="none" xmlns="http://www.w3.org/2000/svg">
<rect x="-6.10352e-05" y="0.499969" width="72" height="72" rx="25" fill="#2D8DFF"/>
<path d="M23.2851 37.1479C24.9697 37.1479 25.9888 36.0449 25.9888 34.2549V28.3024H31.625C33.3512 28.3024 34.4535 27.3034 34.4535 25.6383C34.4535 23.9941 33.372 22.9951 31.6458 22.9951H25.9888V17.0009C25.9888 15.2318 24.9697 14.1079 23.2851 14.1079C21.6005 14.1079 20.5606 15.2318 20.5606 17.0009V22.9951H14.8828C13.1774 22.9951 12.0959 23.9941 12.0959 25.6383C12.0959 27.3034 13.1774 28.3024 14.8828 28.3024H20.5606V34.2549C20.5606 36.0449 21.5797 37.1479 23.2851 37.1479Z" fill="white"/>
<path d="M48.6636 37.1479C50.3482 37.1479 51.3673 36.0449 51.3673 34.2549V28.3024H57.0035C58.7297 28.3024 59.8319 27.3034 59.8319 25.6383C59.8319 23.9941 58.7505 22.9951 57.0243 22.9951H51.3673V17.0009C51.3673 15.2318 50.3482 14.1079 48.6636 14.1079C46.979 14.1079 45.9391 15.2318 45.9391 17.0009V22.9951H40.2613C38.5559 22.9951 37.4744 23.9941 37.4744 25.6383C37.4744 27.3034 38.5559 28.3024 40.2613 28.3024H45.9391V34.2549C45.9391 36.0449 46.9582 37.1479 48.6636 37.1479Z" fill="white"/>
<path fill-rule="evenodd" clip-rule="evenodd" d="M48.7061 41.4866C50.1614 41.6584 51.2015 42.9747 51.0293 44.4266C50.7081 47.1339 49.6477 51.1728 47.4209 54.6163C45.1606 58.1119 41.4838 61.268 36.0359 61.268C30.5881 61.268 26.9113 58.1119 24.6509 54.6163C22.4241 51.1728 21.3638 47.1339 21.0426 44.4266C20.8704 42.9747 21.9105 41.6584 23.3657 41.4866C24.821 41.3147 26.1404 42.3524 26.3126 43.8043C26.565 45.9321 27.4288 49.1459 29.1103 51.7462C30.7582 54.2945 32.9737 55.9735 36.0359 55.9735C39.0982 55.9735 41.3137 54.2945 42.9616 51.7462C44.6431 49.1459 45.5068 45.9321 45.7593 43.8043C45.9315 42.3524 47.2509 41.3147 48.7061 41.4866Z" fill="white"/>
</svg>
